<svg width="105" height="35" viewBox="0 0 105 35" fill="none" xmlns="http://www.w3.org/2000/svg">
<path d="M29.3958 31.004C31.8918 31.004 33.9078 30.512 35.4438 29.528L35.6958 29.816C33.6318 32.672 31.0638 34.256 27.9918 34.568C27.3438 34.64 26.7798 34.676 26.2998 34.676C25.8438 34.676 25.3038 34.652 24.6798 34.604C24.0798 34.58 23.2278 34.424 22.1238 34.136C21.0198 33.848 20.0478 33.548 19.2078 33.236C18.3678 32.948 17.3958 32.552 16.2918 32.048C15.1878 31.568 14.2758 31.136 13.5558 30.752C12.8358 30.392 11.9718 29.948 10.9638 29.42C9.9798 28.916 9.1158 28.484 8.3718 28.124C7.6278 27.764 6.9078 27.452 6.2118 27.188C4.2438 26.396 2.2278 26 0.163798 26V25.64H0.631798C1.2558 25.64 1.7838 25.424 2.2158 24.992C2.6718 24.56 2.9118 24.02 2.9358 23.372V3.428C2.9118 2.78 2.6718 2.24 2.2158 1.808C1.7838 1.376 1.2558 1.16 0.631798 1.16H0.163798V0.799998H11.1078L11.0718 1.16H10.7118C9.7998 1.16 9.1158 1.532 8.6598 2.276C8.4438 2.612 8.3358 2.996 8.3358 3.428V24.308C8.3358 25.1 8.4918 25.652 8.8038 25.964C9.1158 26.252 9.4638 26.456 9.8478 26.576C18.8718 29.528 25.3878 31.004 29.3958 31.004ZM28.5416 0.295998C32.9816 0.295998 36.5096 1.472 39.1256 3.824C41.7416 6.176 43.0496 9.368 43.0496 13.4C43.0496 17.432 41.7416 20.624 39.1256 22.976C36.5096 25.328 32.9816 26.504 28.5416 26.504C24.1016 26.504 20.5736 25.328 17.9576 22.976C15.3416 20.624 14.0336 17.432 14.0336 13.4C14.0336 10.736 14.6216 8.42 15.7976 6.452C16.9976 4.46 18.6896 2.936 20.8736 1.88C23.0576 0.823999 25.6136 0.295998 28.5416 0.295998ZM22.2416 21.896C23.8016 23.96 25.9016 24.992 28.5416 24.992C31.1816 24.992 33.2696 23.96 34.8056 21.896C36.3656 19.808 37.1456 16.976 37.1456 13.4C37.1456 11.048 36.7976 8.996 36.1016 7.244C35.4056 5.492 34.4096 4.148 33.1136 3.212C31.8176 2.276 30.2936 1.808 28.5416 1.808C25.9016 1.808 23.8016 2.852 22.2416 4.94C20.7056 7.004 19.9376 9.824 19.9376 13.4C19.9376 16.976 20.7056 19.808 22.2416 21.896ZM73.6378 14.3H73.0978C72.5218 14.3 72.0778 14.444 71.7658 14.732C71.4538 14.996 71.2978 15.392 71.2978 15.92V21.86C70.3618 23.084 68.8138 24.164 66.6538 25.1C64.4938 26.036 62.0698 26.504 59.3818 26.504C55.2778 26.504 51.9778 25.328 49.4818 22.976C47.0098 20.6 45.7738 17.408 45.7738 13.4C45.7738 9.368 47.0098 6.176 49.4818 3.824C51.9778 1.472 55.3498 0.295998 59.5978 0.295998C61.5178 0.295998 63.3778 0.487999 65.1778 0.872C66.9778 1.232 68.4298 1.688 69.5338 2.24L69.6058 8.432H69.2818C68.6578 6.104 67.5898 4.424 66.0778 3.392C64.5658 2.336 62.7658 1.808 60.6778 1.808C57.7738 1.808 55.5418 2.852 53.9818 4.94C52.4218 7.004 51.6418 9.848 51.6418 13.472C51.6418 17.072 52.3498 19.892 53.7658 21.932C55.2058 23.972 57.2338 24.992 59.8498 24.992C61.7458 24.992 63.3298 24.452 64.6018 23.372C65.2258 22.82 65.6818 22.172 65.9698 21.428V15.92C65.9698 15.392 65.8018 14.996 65.4658 14.732C65.1538 14.444 64.6978 14.3 64.0978 14.3H63.5218V13.94H73.6378V14.3ZM89.5476 0.295998C93.9876 0.295998 97.5156 1.472 100.132 3.824C102.748 6.176 104.056 9.368 104.056 13.4C104.056 17.432 102.748 20.624 100.132 22.976C97.5156 25.328 93.9876 26.504 89.5476 26.504C85.1076 26.504 81.5796 25.328 78.9636 22.976C76.3476 20.624 75.0396 17.432 75.0396 13.4C75.0396 10.736 75.6276 8.42 76.8036 6.452C78.0036 4.46 79.6956 2.936 81.8796 1.88C84.0636 0.823999 86.6196 0.295998 89.5476 0.295998ZM83.2476 21.896C84.8076 23.96 86.9076 24.992 89.5476 24.992C92.1876 24.992 94.2756 23.96 95.8116 21.896C97.3716 19.808 98.1516 16.976 98.1516 13.4C98.1516 11.048 97.8036 8.996 97.1076 7.244C96.4116 5.492 95.4156 4.148 94.1196 3.212C92.8236 2.276 91.2996 1.808 89.5476 1.808C86.9076 1.808 84.8076 2.852 83.2476 4.94C81.7116 7.004 80.9436 9.824 80.9436 13.4C80.9436 16.976 81.7116 19.808 83.2476 21.896Z" fill="#18A0FB"/>
</svg>
